<?xml version="1.0" standalone="no"?>
 <!DOCTYPE svg PUBLIC "-//W3C//DTD SVG 1.1//EN" 
 "http://www.w3.org/Graphics/SVG/1.1/DTD/svg11.dtd"> 
<svg xmlns="http://www.w3.org/2000/svg" version="1.1" 
    width="5.19938cm" height="5.41274cm" viewBox="0 0 20470 21310 ">
<title>SVG Picture created as proyecto_electronica_3-B.Cu.svg date 2019/04/18 21:29:59 </title>
  <desc>Picture generated by PCBNEW </desc>
<g style="fill:#000000; fill-opacity:1;stroke:#000000; stroke-opacity:1;
stroke-linecap:round; stroke-linejoin:round; "
 transform="translate(0 0) scale(1 1)">
</g>
<g style="fill:#000000; fill-opacity:0.0; 
stroke:#000000; stroke-width:-0.000393701; stroke-opacity:1; 
stroke-linecap:round; stroke-linejoin:round;">
</g>
<g style="fill:#000000; fill-opacity:0.0; 
stroke:#000000; stroke-width:118.11; stroke-opacity:1; 
stroke-linecap:round; stroke-linejoin:round;">
<path d="M15296 9961
L14706 9961
L14706 10186
L14734 10242
L14762 10270
L14818 10298
L14902 10298
L14959 10270
L14987 10242
L15015 10186
L15015 9961
" />
<path d="M14706 10495
L14706 10861
L14931 10664
L14931 10748
L14959 10805
L14987 10833
L15043 10861
L15184 10861
L15240 10833
L15268 10805
L15296 10748
L15296 10580
L15268 10523
L15240 10495
" />
<path d="M15352 10973
L15352 11423
" />
<path d="M15296 11564
L14706 11564
L14706 11705
L14734 11789
L14790 11845
L14846 11873
L14959 11901
L15043 11901
L15156 11873
L15212 11845
L15268 11789
L15296 11705
L15296 11564
" />
<path d="M15296 12154
L14902 12154
" />
<path d="M14706 12154
L14734 12126
L14762 12154
L14734 12183
L14706 12154
L14762 12154
" />
<path d="M15296 12436
L14902 12436
" />
<path d="M14959 12436
L14931 12464
L14902 12520
L14902 12604
L14931 12661
L14987 12689
L15296 12689
" />
<path d="M14987 12689
L14931 12717
L14902 12773
L14902 12857
L14931 12914
L14987 12942
L15296 12942
" />
<path d="M15296 13223
L14902 13223
" />
<path d="M14959 13223
L14931 13251
L14902 13307
L14902 13392
L14931 13448
L14987 13476
L15296 13476
" />
<path d="M14987 13476
L14931 13504
L14902 13561
L14902 13645
L14931 13701
L14987 13729
L15296 13729
" />
<path d="M15268 14235
L15296 14179
L15296 14067
L15268 14010
L15212 13982
L14987 13982
L14931 14010
L14902 14067
L14902 14179
L14931 14235
L14987 14264
L15043 14264
L15099 13982
" />
<path d="M15296 14517
L14902 14517
" />
<path d="M15015 14517
L14959 14545
L14931 14573
L14902 14629
L14902 14685
" />
</g>
<g style="fill:#000000; fill-opacity:1.0; 
stroke:#000000; stroke-width:0; stroke-opacity:1; 
stroke-linecap:round; stroke-linejoin:round;">
<circle cx="14229.5" cy="19181.5" r="1102.36" /> 
</g>
<g style="fill:#000000; fill-opacity:1.0; 
stroke:#000000; stroke-width:39.3701; stroke-opacity:1; 
stroke-linecap:round; stroke-linejoin:round;">
</g>
<g style="fill:#000000; fill-opacity:1.0; 
stroke:#000000; stroke-width:0; stroke-opacity:1; 
stroke-linecap:round; stroke-linejoin:round;">
<circle cx="14429.5" cy="3881.5" r="1102.36" /> 
</g>
<g style="fill:#000000; fill-opacity:1.0; 
stroke:#000000; stroke-width:39.3701; stroke-opacity:1; 
stroke-linecap:round; stroke-linejoin:round;">
</g>
<g style="fill:#000000; fill-opacity:1.0; 
stroke:#000000; stroke-width:0; stroke-opacity:1; 
stroke-linecap:round; stroke-linejoin:round;">
<circle cx="2429.53" cy="19081.5" r="1102.36" /> 
</g>
<g style="fill:#000000; fill-opacity:1.0; 
stroke:#000000; stroke-width:39.3701; stroke-opacity:1; 
stroke-linecap:round; stroke-linejoin:round;">
</g>
<g style="fill:#000000; fill-opacity:1.0; 
stroke:#000000; stroke-width:0; stroke-opacity:1; 
stroke-linecap:round; stroke-linejoin:round;">
<circle cx="2529.53" cy="3781.5" r="1102.36" /> 
</g>
<g style="fill:#000000; fill-opacity:1.0; 
stroke:#000000; stroke-width:39.3701; stroke-opacity:1; 
stroke-linecap:round; stroke-linejoin:round;">
</g>
<g style="fill:#000000; fill-opacity:1.0; 
stroke:#000000; stroke-width:0; stroke-opacity:1; 
stroke-linecap:round; stroke-linejoin:round;">
<polyline style="fill-rule:evenodd;"
points="11344,5946
10714,5946
10714,5316
11344,5316
11344,5946
" /> 
<circle cx="11029.5" cy="4253.54" r="314.961" /> 
</g>
<g style="fill:#000000; fill-opacity:1.0; 
stroke:#000000; stroke-width:39.3701; stroke-opacity:1; 
stroke-linecap:round; stroke-linejoin:round;">
</g>
<g style="fill:#000000; fill-opacity:1.0; 
stroke:#000000; stroke-width:0; stroke-opacity:1; 
stroke-linecap:round; stroke-linejoin:round;">
<polyline style="fill-rule:evenodd;"
points="9786,19624
9786,18837
10573,18837
10573,19624
9786,19624
" /> 
<circle cx="11679.5" cy="19231.5" r="393.5" /> 
</g>
<g style="fill:#000000; fill-opacity:1.0; 
stroke:#000000; stroke-width:39.3701; stroke-opacity:1; 
stroke-linecap:round; stroke-linejoin:round;">
</g>
<g style="fill:#000000; fill-opacity:1.0; 
stroke:#000000; stroke-width:0; stroke-opacity:1; 
stroke-linecap:round; stroke-linejoin:round;">
<polyline style="fill-rule:evenodd;"
points="1248,11700
3610,11700
3610,14062
1248,14062
1248,11700
" /> 
<circle cx="2429.53" cy="15881.5" r="1181" /> 
</g>
<g style="fill:#000000; fill-opacity:1.0; 
stroke:#000000; stroke-width:39.3701; stroke-opacity:1; 
stroke-linecap:round; stroke-linejoin:round;">
</g>
<g style="fill:#000000; fill-opacity:1.0; 
stroke:#000000; stroke-width:0; stroke-opacity:1; 
stroke-linecap:round; stroke-linejoin:round;">
<circle cx="7229.53" cy="19281.5" r="393.5" /> 
</g>
<g style="fill:#000000; fill-opacity:1.0; 
stroke:#000000; stroke-width:39.3701; stroke-opacity:1; 
stroke-linecap:round; stroke-linejoin:round;">
</g>
<g style="fill:#000000; fill-opacity:1.0; 
stroke:#000000; stroke-width:0; stroke-opacity:1; 
stroke-linecap:round; stroke-linejoin:round;">
<circle cx="8429.53" cy="19281.5" r="393.5" /> 
</g>
<g style="fill:#000000; fill-opacity:1.0; 
stroke:#000000; stroke-width:39.3701; stroke-opacity:1; 
stroke-linecap:round; stroke-linejoin:round;">
</g>
<g style="fill:#000000; fill-opacity:1.0; 
stroke:#000000; stroke-width:0; stroke-opacity:1; 
stroke-linecap:round; stroke-linejoin:round;">
<circle cx="2429.53" cy="7081.5" r="1181" /> 
</g>
<g style="fill:#000000; fill-opacity:1.0; 
stroke:#000000; stroke-width:39.3701; stroke-opacity:1; 
stroke-linecap:round; stroke-linejoin:round;">
</g>
<g style="fill:#000000; fill-opacity:1.0; 
stroke:#000000; stroke-width:0; stroke-opacity:1; 
stroke-linecap:round; stroke-linejoin:round;">
<polyline style="fill-rule:evenodd;"
points="3610,11262
1248,11262
1248,8900
3610,8900
3610,11262
" /> 
<polyline style="fill-rule:evenodd;"
points="5654,5225
5654,4437
6404,4437
6404,5225
5654,5225
" /> 
</g>
<g style="fill:#000000; fill-opacity:1.0; 
stroke:#000000; stroke-width:750; stroke-opacity:1; 
stroke-linecap:round; stroke-linejoin:round;">
</g>
<g style="fill:#000000; fill-opacity:0.0; 
stroke:#000000; stroke-width:750; stroke-opacity:1; 
stroke-linecap:round; stroke-linejoin:round;">
<path d="M7029 4812
L7029 4850
" />
<path d="M8029 4812
L8029 4850
" />
</g>
<g style="fill:#000000; fill-opacity:1.0; 
stroke:#000000; stroke-width:0; stroke-opacity:1; 
stroke-linecap:round; stroke-linejoin:round;">
<circle cx="8179.53" cy="7081.5" r="314.961" /> 
</g>
<g style="fill:#000000; fill-opacity:1.0; 
stroke:#000000; stroke-width:39.3701; stroke-opacity:1; 
stroke-linecap:round; stroke-linejoin:round;">
</g>
<g style="fill:#000000; fill-opacity:1.0; 
stroke:#000000; stroke-width:629.921; stroke-opacity:1; 
stroke-linecap:round; stroke-linejoin:round;">
</g>
<g style="fill:#000000; fill-opacity:0.0; 
stroke:#000000; stroke-width:629.921; stroke-opacity:1; 
stroke-linecap:round; stroke-linejoin:round;">
<path d="M8179 10081
L8179 10081
" />
<path d="M11679 16281
L11679 16281
" />
</g>
<g style="fill:#000000; fill-opacity:1.0; 
stroke:#000000; stroke-width:0; stroke-opacity:1; 
stroke-linecap:round; stroke-linejoin:round;">
<circle cx="11679.5" cy="13281.5" r="314.961" /> 
</g>
<g style="fill:#000000; fill-opacity:1.0; 
stroke:#000000; stroke-width:39.3701; stroke-opacity:1; 
stroke-linecap:round; stroke-linejoin:round;">
</g>
<g style="fill:#000000; fill-opacity:1.0; 
stroke:#000000; stroke-width:629.921; stroke-opacity:1; 
stroke-linecap:round; stroke-linejoin:round;">
</g>
<g style="fill:#000000; fill-opacity:0.0; 
stroke:#000000; stroke-width:629.921; stroke-opacity:1; 
stroke-linecap:round; stroke-linejoin:round;">
<path d="M9929 9481
L9929 9481
" />
<path d="M12929 7481
L12929 7481
" />
<path d="M9929 8481
L9929 8481
" />
<path d="M12929 8481
L12929 8481
" />
<path d="M9929 7481
L9929 7481
" />
</g>
<g style="fill:#000000; fill-opacity:0.0; 
stroke:#000000; stroke-width:0; stroke-opacity:1; 
stroke-linecap:round; stroke-linejoin:round;">
</g>
<g style="fill:#000000; fill-opacity:1.0; 
stroke:#000000; stroke-width:0; stroke-opacity:1; 
stroke-linecap:round; stroke-linejoin:round;">
<polyline style="fill-rule:evenodd;"
points="13244,9166
13244,9796
12614,9796
12614,9166
13244,9166
" /> 
<polyline style="fill-rule:evenodd;"
points="5214,11896
5214,11266
5844,11266
5844,11896
5214,11896
" /> 
</g>
<g style="fill:#000000; fill-opacity:1.0; 
stroke:#000000; stroke-width:629.921; stroke-opacity:1; 
stroke-linecap:round; stroke-linejoin:round;">
</g>
<g style="fill:#000000; fill-opacity:0.0; 
stroke:#000000; stroke-width:629.921; stroke-opacity:1; 
stroke-linecap:round; stroke-linejoin:round;">
<path d="M8529 13581
L8529 13581
" />
<path d="M5529 12581
L5529 12581
" />
<path d="M8529 12581
L8529 12581
" />
<path d="M5529 13581
L5529 13581
" />
<path d="M8529 11581
L8529 11581
" />
</g>
<g style="fill:#000000; fill-opacity:1.0; 
stroke:#000000; stroke-width:0; stroke-opacity:1; 
stroke-linecap:round; stroke-linejoin:round;">
<circle cx="12929.5" cy="13331.5" r="314.961" /> 
</g>
<g style="fill:#000000; fill-opacity:1.0; 
stroke:#000000; stroke-width:39.3701; stroke-opacity:1; 
stroke-linecap:round; stroke-linejoin:round;">
</g>
<g style="fill:#000000; fill-opacity:1.0; 
stroke:#000000; stroke-width:629.921; stroke-opacity:1; 
stroke-linecap:round; stroke-linejoin:round;">
</g>
<g style="fill:#000000; fill-opacity:0.0; 
stroke:#000000; stroke-width:629.921; stroke-opacity:1; 
stroke-linecap:round; stroke-linejoin:round;">
<path d="M12929 16331
L12929 16331
" />
<path d="M5429 6081
L5429 6081
" />
</g>
<g style="fill:#000000; fill-opacity:1.0; 
stroke:#000000; stroke-width:0; stroke-opacity:1; 
stroke-linecap:round; stroke-linejoin:round;">
<circle cx="8429.53" cy="6081.5" r="314.961" /> 
</g>
<g style="fill:#000000; fill-opacity:1.0; 
stroke:#000000; stroke-width:39.3701; stroke-opacity:1; 
stroke-linecap:round; stroke-linejoin:round;">
</g>
<g style="fill:#000000; fill-opacity:1.0; 
stroke:#000000; stroke-width:0; stroke-opacity:1; 
stroke-linecap:round; stroke-linejoin:round;">
<circle cx="5729.53" cy="7081.5" r="314.961" /> 
</g>
<g style="fill:#000000; fill-opacity:1.0; 
stroke:#000000; stroke-width:39.3701; stroke-opacity:1; 
stroke-linecap:round; stroke-linejoin:round;">
</g>
<g style="fill:#000000; fill-opacity:1.0; 
stroke:#000000; stroke-width:629.921; stroke-opacity:1; 
stroke-linecap:round; stroke-linejoin:round;">
</g>
<g style="fill:#000000; fill-opacity:0.0; 
stroke:#000000; stroke-width:629.921; stroke-opacity:1; 
stroke-linecap:round; stroke-linejoin:round;">
<path d="M5729 10081
L5729 10081
" />
</g>
<g style="fill:#000000; fill-opacity:1.0; 
stroke:#000000; stroke-width:0; stroke-opacity:1; 
stroke-linecap:round; stroke-linejoin:round;">
<circle cx="6979.53" cy="7081.5" r="314.961" /> 
</g>
<g style="fill:#000000; fill-opacity:1.0; 
stroke:#000000; stroke-width:39.3701; stroke-opacity:1; 
stroke-linecap:round; stroke-linejoin:round;">
</g>
<g style="fill:#000000; fill-opacity:1.0; 
stroke:#000000; stroke-width:629.921; stroke-opacity:1; 
stroke-linecap:round; stroke-linejoin:round;">
</g>
<g style="fill:#000000; fill-opacity:0.0; 
stroke:#000000; stroke-width:629.921; stroke-opacity:1; 
stroke-linecap:round; stroke-linejoin:round;">
<path d="M6979 10081
L6979 10081
" />
</g>
<g style="fill:#000000; fill-opacity:1.0; 
stroke:#000000; stroke-width:0; stroke-opacity:1; 
stroke-linecap:round; stroke-linejoin:round;">
<circle cx="4429.53" cy="6031.5" r="314.961" /> 
</g>
<g style="fill:#000000; fill-opacity:1.0; 
stroke:#000000; stroke-width:39.3701; stroke-opacity:1; 
stroke-linecap:round; stroke-linejoin:round;">
</g>
<g style="fill:#000000; fill-opacity:1.0; 
stroke:#000000; stroke-width:0; stroke-opacity:1; 
stroke-linecap:round; stroke-linejoin:round;">
<circle cx="4429.53" cy="15881.5" r="314.961" /> 
</g>
<g style="fill:#000000; fill-opacity:1.0; 
stroke:#000000; stroke-width:39.3701; stroke-opacity:1; 
stroke-linecap:round; stroke-linejoin:round;">
</g>
<g style="fill:#000000; fill-opacity:1.0; 
stroke:#000000; stroke-width:393.701; stroke-opacity:1; 
stroke-linecap:round; stroke-linejoin:round;">
</g>
<g style="fill:#000000; fill-opacity:0.0; 
stroke:#000000; stroke-width:393.701; stroke-opacity:1; 
stroke-linecap:round; stroke-linejoin:round;">
<path d="M6979 10081
L6979 9531
" />
<path d="M6979 9531
L7229 9281
" />
<path d="M8655 9281
L9929 10555
" />
<path d="M7229 9281
L8655 9281
" />
<path d="M9929 10555
L10555 10555
" />
<path d="M11029 10081
L11029 5631
" />
<path d="M10555 10555
L11029 10081
" />
<path d="M12929 17381
L12929 16331
" />
<path d="M11679 19231
L11679 18631
" />
<path d="M11679 18631
L12929 17381
" />
<path d="M4820 11581
L4129 10890
" />
<path d="M5529 11581
L4820 11581
" />
<path d="M4004 10081
L2429 10081
" />
<path d="M4129 10206
L4004 10081
" />
<path d="M4129 10890
L4129 10206
" />
<path d="M2429 10081
L2429 12881
" />
<path d="M8429 6081
L8029 6081
" />
<path d="M8029 6081
L8029 5681
" />
<path d="M8029 5681
L8029 4831
" />
<path d="M9929 6581
L9929 7481
" />
<path d="M8429 6081
L9429 6081
" />
<path d="M9429 6081
L9929 6581
" />
<path d="M12929 9481
L12929 13331
" />
<path d="M5729 9081
L5729 10081
" />
<path d="M6229 8581
L5729 9081
" />
<path d="M9929 9481
L9029 8581
" />
<path d="M9029 8581
L6229 8581
" />
<path d="M11679 13281
L11679 12836
" />
<path d="M11679 12836
L11424 12581
" />
<path d="M7229 18725
L7279 18675
" />
<path d="M7229 19281
L7229 18725
" />
<path d="M7279 18675
L7279 17281
" />
<path d="M9929 14631
L9929 12581
" />
<path d="M7279 17281
L9929 14631
" />
<path d="M11424 12581
L9929 12581
" />
<path d="M9929 12581
L8529 12581
" />
<path d="M8429 19281
L8429 18031
" />
<path d="M8429 18031
L10179 16281
" />
<path d="M10179 16281
L11679 16281
" />
<path d="M6979 7081
L5729 7081
" />
<path d="M8179 7081
L6979 7081
" />
<path d="M6979 7081
L6979 6636
" />
<path d="M6979 4881
L7029 4831
" />
<path d="M6979 7081
L6979 4881
" />
<path d="M2429 7081
L5729 7081
" />
<path d="M2479 15881
L2429 15831
" />
<path d="M4429 15881
L2479 15881
" />
<path d="M6029 5926
L6029 4831
" />
<path d="M5429 6081
L5874 6081
" />
<path d="M5874 6081
L6029 5926
" />
<path d="M6029 4044
L6292 3781
" />
<path d="M6029 4831
L6029 4044
" />
<path d="M6292 3781
L8829 3781
" />
<path d="M8829 3781
L9329 4281
" />
<path d="M9357 4253
L11029 4253
" />
<path d="M9329 4281
L9357 4253
" />
<path d="M4479 6081
L4429 6031
" />
<path d="M5429 6081
L4479 6081
" />
<path d="M5529 12581
L6329 12581
" />
<path d="M8179 10731
L8179 10081
" />
<path d="M6329 12581
L8179 10731
" />
</g>
<g style="fill:#000000; fill-opacity:1.0; 
stroke:#000000; stroke-width:100; stroke-opacity:1; 
stroke-linecap:round; stroke-linejoin:round;">
<polyline style="fill-rule:evenodd;"
points="1766,2632
1760,2637
1634,2816
2529,3710
3424,2816
3299,2637
3116,2561
14084,2561
13666,2732
13660,2737
13534,2916
14429,3810
15324,2916
15199,2737
14776,2561
15750,2561
15750,3536
15578,3118
15573,3112
15395,2986
14500,3881
15395,4776
15573,4650
15750,4228
15750,9511
14324,9511
14324,15051
15750,15051
15750,21001
309,21001
309,20046
1534,20046
1660,20225
2156,20433
2694,20434
3192,20230
3199,20225
3254,20146
13334,20146
13460,20325
13956,20533
14494,20534
14992,20330
14999,20325
15124,20146
14229,19252
13334,20146
3254,20146
3324,20046
2429,19152
1534,20046
309,20046
309,19346
1076,19346
1280,19844
1285,19850
1464,19976
2358,19081
2500,19081
3395,19976
3573,19850
3781,19354
3782,18816
3578,18318
3573,18312
3395,18186
2500,19081
2358,19081
1464,18186
1285,18312
1077,18808
1076,19346
309,19346
309,18116
1534,18116
2429,19010
3324,18116
3199,17937
2702,17729
2164,17728
1666,17932
1660,17937
1534,18116
309,18116
309,15596
998,15596
998,16166
1216,16692
1618,17094
2144,17312
2714,17312
3240,17094
3642,16692
3793,16328
4077,16328
4109,16360
4317,16446
4541,16446
4749,16360
4908,16201
4994,15993
4994,15769
4908,15561
4749,15402
4541,15316
4317,15316
4109,15402
4077,15434
3793,15434
3642,15070
3240,14668
2714,14450
2144,14450
1618,14668
1216,15070
998,15596
309,15596
309,8900
993,8900
993,11262
1013,11360
1068,11442
1126,11481
1068,11520
1013,11602
993,11700
993,14062
1013,14160
1068,14242
1150,14297
1248,14317
3610,14317
3708,14297
3790,14242
3846,14160
3865,14062
3865,11700
3846,11602
3790,11520
3732,11481
3790,11442
3846,11360
3865,11262
3865,11257
4473,11866
4498,11903
4626,11988
4646,12002
4820,12037
4864,12028
5002,12028
5034,12076
5117,12131
5169,12142
5122,12174
4997,12361
4953,12581
4997,12801
5122,12988
5260,13081
5122,13174
4997,13361
4953,13581
4997,13801
5122,13988
5309,14113
5473,14146
5585,14146
5749,14113
5936,13988
6061,13801
6078,13718
7981,13718
8044,13871
8192,14035
8392,14129
8479,14081
8479,13631
8579,13631
8579,14081
8666,14129
8866,14035
9014,13871
9077,13718
9029,13631
8579,13631
8479,13631
8029,13631
7981,13718
6078,13718
6105,13581
6061,13361
5936,13174
5798,13081
5877,13028
6285,13028
6329,13037
6373,13028
6503,13002
6651,12903
6676,12866
7954,11588
7997,11801
8122,11988
8260,12081
8122,12174
7997,12361
7953,12581
7997,12801
8122,12988
8273,13089
8192,13127
8044,13291
7981,13444
8029,13531
8479,13531
8479,13523
8579,13523
8579,13531
9029,13531
9077,13444
9014,13291
8866,13127
8785,13089
8877,13028
9482,13028
9482,14446
6994,16934
6957,16959
6907,17034
6858,17107
6823,17281
6832,17325
6832,18514
6808,18550
6792,18631
6773,18725
6782,18769
6782,18818
6683,18916
6586,19153
6586,19409
6683,19646
6865,19827
7101,19924
7357,19924
7594,19827
7775,19646
7829,19514
7883,19646
8065,19827
8301,19924
8557,19924
8794,19827
8975,19646
9073,19409
9073,19343
9536,19343
9536,19674
9574,19766
9644,19836
9736,19874
10067,19874
10129,19812
10129,19281
10229,19281
10229,19812
10292,19874
10622,19874
10714,19836
10784,19766
10823,19674
10823,19343
10760,19281
10229,19281
10129,19281
9598,19281
9536,19343
9073,19343
9073,19153
8975,18916
8876,18818
8876,18788
9536,18788
9536,19118
9598,19181
10129,19181
10129,18650
10229,18650
10229,19181
10760,19181
10823,19118
10823,19103
11036,19103
11036,19359
11133,19596
11315,19777
11551,19874
11807,19874
12044,19777
12225,19596
12287,19446
12876,19446
13080,19944
13085,19950
13264,20076
14158,19181
14300,19181
15195,20076
15373,19950
15581,19454
15582,18916
15378,18418
15373,18412
15195,18286
14300,19181
14158,19181
13264,18286
13085,18412
12877,18908
12876,19446
12287,19446
12323,19359
12323,19103
12225,18866
12150,18792
12726,18216
13334,18216
14229,19110
15124,18216
14999,18037
14502,17829
13964,17828
13466,18032
13460,18037
13334,18216
12726,18216
13214,17728
13251,17703
13350,17555
13376,17425
13376,17425
13385,17381
13376,17337
13376,16679
13461,16551
13505,16331
13461,16111
13336,15924
13149,15799
12985,15766
12873,15766
12709,15799
12522,15924
12397,16111
12353,16331
12397,16551
12482,16679
12482,17196
11394,18284
11357,18309
11294,18402
11258,18457
11223,18631
11232,18675
11232,18768
11133,18866
11036,19103
10823,19103
10823,18788
10784,18696
10714,18626
10622,18587
10292,18587
10229,18650
10129,18650
10067,18587
9736,18587
9644,18626
9574,18696
9536,18788
8876,18788
8876,18216
10364,16728
11331,16728
11459,16813
11623,16846
11735,16846
11899,16813
12086,16688
12211,16501
12255,16281
12211,16061
12086,15874
11899,15749
11735,15716
11623,15716
11459,15749
11331,15834
10223,15834
10179,15825
10135,15834
10005,15860
9857,15959
9832,15996
8144,17684
8107,17709
8045,17802
8008,17857
7973,18031
7982,18075
7982,18818
7883,18916
7829,19048
7775,18916
7701,18843
7726,18719
7726,18719
7735,18675
7726,18630
7726,17466
10214,14978
10251,14953
10350,14805
10376,14675
10376,14675
10385,14631
10376,14587
10376,13028
11172,13028
11114,13169
11114,13393
11200,13601
11359,13760
11567,13846
11791,13846
11999,13760
12158,13601
12244,13393
12244,13169
12158,12961
12126,12929
12126,12880
12135,12836
12100,12661
12001,12513
11964,12488
11772,12296
11747,12259
11599,12160
11468,12134
11424,12125
11380,12134
9973,12134
9929,12125
9885,12134
8877,12134
8798,12081
8936,11988
9061,11801
9105,11581
9061,11361
8936,11174
8749,11049
8585,11016
8526,11016
8600,10905
8626,10775
8626,10775
8635,10731
8626,10687
8626,10429
8711,10301
8755,10081
8738,9996
9582,10840
9607,10877
9755,10976
9929,11011
9973,11002
10511,11002
10555,11011
10599,11002
10729,10976
10877,10877
10902,10840
11314,10428
11351,10403
11450,10255
11476,10125
11476,10125
11485,10081
11476,10037
11476,9166
12359,9166
12359,9796
12379,9894
12434,9976
12482,10009
12482,12979
12450,13011
12364,13219
12364,13443
12450,13651
12609,13810
12817,13896
13041,13896
13249,13810
13408,13651
13494,13443
13494,13219
13408,13011
13376,12979
13376,10009
13424,9976
13479,9894
13499,9796
13499,9166
13479,9068
13424,8986
13342,8931
13280,8918
13414,8771
13477,8618
13429,8531
12979,8531
12979,8539
12879,8539
12879,8531
12429,8531
12381,8618
12444,8771
12578,8918
12517,8931
12434,8986
12379,9068
12359,9166
11476,9166
11476,7481
12353,7481
12397,7701
12522,7888
12673,7989
12592,8027
12444,8191
12381,8344
12429,8431
12879,8431
12879,8423
12979,8423
12979,8431
13429,8431
13477,8344
13414,8191
13266,8027
13185,7989
13336,7888
13461,7701
13505,7481
13461,7261
13336,7074
13149,6949
12985,6916
12873,6916
12709,6949
12522,7074
12397,7261
12353,7481
11476,7481
11476,6159
11524,6126
11579,6044
11599,5946
11599,5316
11579,5218
11524,5136
11442,5081
11344,5061
10714,5061
10617,5081
10534,5136
10479,5218
10459,5316
10459,5946
10479,6044
10534,6126
10582,6159
10582,9896
10370,10108
10114,10108
10041,10035
10149,10013
10336,9888
10461,9701
10505,9481
10461,9261
10336,9074
10198,8981
10336,8888
10461,8701
10505,8481
10461,8261
10336,8074
10198,7981
10336,7888
10461,7701
10505,7481
10461,7261
10376,7133
10376,6625
10385,6581
10350,6407
10323,6366
10251,6259
10214,6234
9776,5796
9751,5759
9603,5660
9473,5634
9429,5625
9385,5634
8781,5634
8749,5602
8541,5516
8476,5516
8476,5303
8480,5300
8618,5094
8654,4911
8654,4846
13534,4846
13660,5025
14156,5233
14694,5234
15192,5030
15199,5025
15324,4846
14429,3952
13534,4846
8654,4846
8654,4751
8618,4568
8480,4362
8279,4228
8644,4228
8982,4566
9007,4603
9044,4628
9044,4628
9155,4702
9329,4737
9329,4737
9503,4702
9506,4700
10677,4700
10709,4732
10917,4818
11141,4818
11349,4732
11508,4573
11594,4365
11594,4146
13076,4146
13280,4644
13285,4650
13464,4776
14358,3881
13464,2986
13285,3112
13077,3608
13076,4146
11594,4146
11594,4141
11508,3933
11349,3774
11141,3688
10917,3688
10709,3774
10677,3806
9486,3806
9176,3496
9151,3459
9003,3360
8873,3334
8829,3325
8785,3334
6336,3334
6292,3325
6248,3334
6117,3360
5969,3459
5945,3496
5744,3697
5707,3721
5647,3810
5608,3869
5573,4044
5582,4088
5582,4197
5556,4202
5474,4257
5419,4340
5399,4437
5399,5225
5419,5322
5474,5405
5556,5460
5582,5465
5582,5535
5485,5516
5373,5516
5209,5549
5081,5634
4831,5634
4749,5552
4541,5466
4317,5466
4109,5552
3950,5711
3864,5919
3864,6143
3950,6351
4109,6510
4317,6596
4541,6596
4706,6528
5081,6528
5209,6613
5314,6634
3793,6634
3642,6270
3240,5868
2714,5650
2144,5650
1618,5868
1216,6270
998,6796
998,7366
1216,7892
1618,8294
2144,8512
2714,8512
3240,8294
3642,7892
3793,7528
5377,7528
5409,7560
5617,7646
5841,7646
6049,7560
6081,7528
6627,7528
6659,7560
6867,7646
7091,7646
7299,7560
7331,7528
7827,7528
7859,7560
8067,7646
8291,7646
8499,7560
8658,7401
8744,7193
8744,6969
8658,6761
8543,6646
8749,6560
8781,6528
9244,6528
9482,6766
9482,7133
9397,7261
9353,7481
9397,7701
9522,7888
9660,7981
9522,8074
9397,8261
9388,8308
9376,8296
9351,8259
9203,8160
9073,8134
9029,8125
8985,8134
6273,8134
6229,8125
6055,8160
5907,8259
5882,8296
5444,8734
5407,8759
5313,8900
5308,8907
5273,9081
5282,9125
5282,9733
5197,9861
5153,10081
5197,10301
5322,10488
5509,10613
5673,10646
5785,10646
5949,10613
6136,10488
6261,10301
6305,10081
6261,9861
6176,9733
6176,9266
6414,9028
6850,9028
6694,9184
6657,9209
6558,9357
6558,9357
6523,9531
6532,9575
6532,9733
6447,9861
6403,10081
6447,10301
6572,10488
6759,10613
6923,10646
7035,10646
7199,10613
7386,10488
7511,10301
7555,10081
7511,9861
7426,9733
7426,9728
7736,9728
7647,9861
7603,10081
7647,10301
7732,10429
7732,10546
6144,12134
5928,12134
5942,12131
6024,12076
6079,11994
6099,11896
6099,11266
6079,11168
6024,11086
5942,11031
5844,11011
5214,11011
5117,11031
5034,11086
5003,11132
4576,10705
4576,10250
4585,10206
4553,10046
4550,10032
4451,9884
4414,9859
4351,9796
4326,9759
4178,9660
4048,9634
4004,9625
3960,9634
3865,9634
3865,8900
3846,8802
3790,8720
3708,8665
3610,8645
1248,8645
1150,8665
1068,8720
1013,8802
993,8900
309,8900
309,4746
1634,4746
1760,4925
2256,5133
2794,5134
3292,4930
3299,4925
3424,4746
2529,3852
1634,4746
309,4746
309,4046
1176,4046
1380,4544
1385,4550
1564,4676
2458,3781
2600,3781
3495,4676
3673,4550
3881,4054
3882,3516
3678,3018
3673,3012
3495,2886
2600,3781
2458,3781
1564,2886
1385,3012
1177,3508
1176,4046
309,4046
309,2561
1941,2561
1766,2632
" /> 
</g>
<g style="fill:#FFFFFF; fill-opacity:1.0; 
stroke:#FFFFFF; stroke-width:100; stroke-opacity:1; 
stroke-linecap:round; stroke-linejoin:round;">
</g>
<g style="fill:#FFFFFF; fill-opacity:1.0; 
stroke:#FFFFFF; stroke-width:0; stroke-opacity:1; 
stroke-linecap:round; stroke-linejoin:round;">
<circle cx="4429.53" cy="6031.5" r="157.48" /> 
</g>
<g style="fill:#FFFFFF; fill-opacity:1.0; 
stroke:#FFFFFF; stroke-width:39.3701; stroke-opacity:1; 
stroke-linecap:round; stroke-linejoin:round;">
</g>
<g style="fill:#FFFFFF; fill-opacity:1.0; 
stroke:#FFFFFF; stroke-width:0; stroke-opacity:1; 
stroke-linecap:round; stroke-linejoin:round;">
<circle cx="4429.53" cy="15881.5" r="157.48" /> 
</g>
<g style="fill:#FFFFFF; fill-opacity:1.0; 
stroke:#FFFFFF; stroke-width:39.3701; stroke-opacity:1; 
stroke-linecap:round; stroke-linejoin:round;">
</g>
<g style="fill:#FFFFFF; fill-opacity:1.0; 
stroke:#FFFFFF; stroke-width:0; stroke-opacity:1; 
stroke-linecap:round; stroke-linejoin:round;">
<circle cx="14229.5" cy="19181.5" r="629.921" /> 
</g>
<g style="fill:#FFFFFF; fill-opacity:1.0; 
stroke:#FFFFFF; stroke-width:39.3701; stroke-opacity:1; 
stroke-linecap:round; stroke-linejoin:round;">
</g>
<g style="fill:#FFFFFF; fill-opacity:1.0; 
stroke:#FFFFFF; stroke-width:0; stroke-opacity:1; 
stroke-linecap:round; stroke-linejoin:round;">
<circle cx="14429.5" cy="3881.5" r="629.921" /> 
</g>
<g style="fill:#FFFFFF; fill-opacity:1.0; 
stroke:#FFFFFF; stroke-width:39.3701; stroke-opacity:1; 
stroke-linecap:round; stroke-linejoin:round;">
</g>
<g style="fill:#FFFFFF; fill-opacity:1.0; 
stroke:#FFFFFF; stroke-width:0; stroke-opacity:1; 
stroke-linecap:round; stroke-linejoin:round;">
<circle cx="2429.53" cy="19081.5" r="629.921" /> 
</g>
<g style="fill:#FFFFFF; fill-opacity:1.0; 
stroke:#FFFFFF; stroke-width:39.3701; stroke-opacity:1; 
stroke-linecap:round; stroke-linejoin:round;">
</g>
<g style="fill:#FFFFFF; fill-opacity:1.0; 
stroke:#FFFFFF; stroke-width:0; stroke-opacity:1; 
stroke-linecap:round; stroke-linejoin:round;">
<circle cx="2529.53" cy="3781.5" r="629.921" /> 
</g>
<g style="fill:#FFFFFF; fill-opacity:1.0; 
stroke:#FFFFFF; stroke-width:39.3701; stroke-opacity:1; 
stroke-linecap:round; stroke-linejoin:round;">
</g>
<g style="fill:#FFFFFF; fill-opacity:1.0; 
stroke:#FFFFFF; stroke-width:0; stroke-opacity:1; 
stroke-linecap:round; stroke-linejoin:round;">
<circle cx="11029.5" cy="5631.5" r="157.48" /> 
</g>
<g style="fill:#FFFFFF; fill-opacity:1.0; 
stroke:#FFFFFF; stroke-width:39.3701; stroke-opacity:1; 
stroke-linecap:round; stroke-linejoin:round;">
</g>
<g style="fill:#FFFFFF; fill-opacity:1.0; 
stroke:#FFFFFF; stroke-width:0; stroke-opacity:1; 
stroke-linecap:round; stroke-linejoin:round;">
<circle cx="11029.5" cy="4253.54" r="157.48" /> 
</g>
<g style="fill:#FFFFFF; fill-opacity:1.0; 
stroke:#FFFFFF; stroke-width:39.3701; stroke-opacity:1; 
stroke-linecap:round; stroke-linejoin:round;">
</g>
<g style="fill:#FFFFFF; fill-opacity:1.0; 
stroke:#FFFFFF; stroke-width:0; stroke-opacity:1; 
stroke-linecap:round; stroke-linejoin:round;">
<circle cx="10179.5" cy="19231.5" r="157.5" /> 
</g>
<g style="fill:#FFFFFF; fill-opacity:1.0; 
stroke:#FFFFFF; stroke-width:39.3701; stroke-opacity:1; 
stroke-linecap:round; stroke-linejoin:round;">
</g>
<g style="fill:#FFFFFF; fill-opacity:1.0; 
stroke:#FFFFFF; stroke-width:0; stroke-opacity:1; 
stroke-linecap:round; stroke-linejoin:round;">
<circle cx="11679.5" cy="19231.5" r="157.5" /> 
</g>
<g style="fill:#FFFFFF; fill-opacity:1.0; 
stroke:#FFFFFF; stroke-width:39.3701; stroke-opacity:1; 
stroke-linecap:round; stroke-linejoin:round;">
</g>
<g style="fill:#FFFFFF; fill-opacity:1.0; 
stroke:#FFFFFF; stroke-width:0; stroke-opacity:1; 
stroke-linecap:round; stroke-linejoin:round;">
<circle cx="2429.53" cy="12881.5" r="492" /> 
</g>
<g style="fill:#FFFFFF; fill-opacity:1.0; 
stroke:#FFFFFF; stroke-width:39.3701; stroke-opacity:1; 
stroke-linecap:round; stroke-linejoin:round;">
</g>
<g style="fill:#FFFFFF; fill-opacity:1.0; 
stroke:#FFFFFF; stroke-width:0; stroke-opacity:1; 
stroke-linecap:round; stroke-linejoin:round;">
<circle cx="2429.53" cy="15881.5" r="492" /> 
</g>
<g style="fill:#FFFFFF; fill-opacity:1.0; 
stroke:#FFFFFF; stroke-width:39.3701; stroke-opacity:1; 
stroke-linecap:round; stroke-linejoin:round;">
</g>
<g style="fill:#FFFFFF; fill-opacity:1.0; 
stroke:#FFFFFF; stroke-width:0; stroke-opacity:1; 
stroke-linecap:round; stroke-linejoin:round;">
<circle cx="7229.53" cy="19281.5" r="157.5" /> 
</g>
<g style="fill:#FFFFFF; fill-opacity:1.0; 
stroke:#FFFFFF; stroke-width:39.3701; stroke-opacity:1; 
stroke-linecap:round; stroke-linejoin:round;">
</g>
<g style="fill:#FFFFFF; fill-opacity:1.0; 
stroke:#FFFFFF; stroke-width:0; stroke-opacity:1; 
stroke-linecap:round; stroke-linejoin:round;">
<circle cx="8429.53" cy="19281.5" r="157.5" /> 
</g>
<g style="fill:#FFFFFF; fill-opacity:1.0; 
stroke:#FFFFFF; stroke-width:39.3701; stroke-opacity:1; 
stroke-linecap:round; stroke-linejoin:round;">
</g>
<g style="fill:#FFFFFF; fill-opacity:1.0; 
stroke:#FFFFFF; stroke-width:0; stroke-opacity:1; 
stroke-linecap:round; stroke-linejoin:round;">
<circle cx="2429.53" cy="7081.5" r="492" /> 
</g>
<g style="fill:#FFFFFF; fill-opacity:1.0; 
stroke:#FFFFFF; stroke-width:39.3701; stroke-opacity:1; 
stroke-linecap:round; stroke-linejoin:round;">
</g>
<g style="fill:#FFFFFF; fill-opacity:1.0; 
stroke:#FFFFFF; stroke-width:0; stroke-opacity:1; 
stroke-linecap:round; stroke-linejoin:round;">
<circle cx="2429.53" cy="10081.5" r="492" /> 
</g>
<g style="fill:#FFFFFF; fill-opacity:1.0; 
stroke:#FFFFFF; stroke-width:39.3701; stroke-opacity:1; 
stroke-linecap:round; stroke-linejoin:round;">
</g>
<g style="fill:#FFFFFF; fill-opacity:1.0; 
stroke:#FFFFFF; stroke-width:0; stroke-opacity:1; 
stroke-linecap:round; stroke-linejoin:round;">
<circle cx="6029.53" cy="4831.5" r="216.535" /> 
</g>
<g style="fill:#FFFFFF; fill-opacity:1.0; 
stroke:#FFFFFF; stroke-width:39.3701; stroke-opacity:1; 
stroke-linecap:round; stroke-linejoin:round;">
</g>
<g style="fill:#FFFFFF; fill-opacity:1.0; 
stroke:#FFFFFF; stroke-width:0; stroke-opacity:1; 
stroke-linecap:round; stroke-linejoin:round;">
<circle cx="7029.53" cy="4831.5" r="216.535" /> 
</g>
<g style="fill:#FFFFFF; fill-opacity:1.0; 
stroke:#FFFFFF; stroke-width:39.3701; stroke-opacity:1; 
stroke-linecap:round; stroke-linejoin:round;">
</g>
<g style="fill:#FFFFFF; fill-opacity:1.0; 
stroke:#FFFFFF; stroke-width:0; stroke-opacity:1; 
stroke-linecap:round; stroke-linejoin:round;">
<circle cx="8029.53" cy="4831.5" r="216.535" /> 
</g>
<g style="fill:#FFFFFF; fill-opacity:1.0; 
stroke:#FFFFFF; stroke-width:39.3701; stroke-opacity:1; 
stroke-linecap:round; stroke-linejoin:round;">
</g>
<g style="fill:#FFFFFF; fill-opacity:1.0; 
stroke:#FFFFFF; stroke-width:0; stroke-opacity:1; 
stroke-linecap:round; stroke-linejoin:round;">
<circle cx="8179.53" cy="7081.5" r="157.48" /> 
</g>
<g style="fill:#FFFFFF; fill-opacity:1.0; 
stroke:#FFFFFF; stroke-width:39.3701; stroke-opacity:1; 
stroke-linecap:round; stroke-linejoin:round;">
</g>
<g style="fill:#FFFFFF; fill-opacity:1.0; 
stroke:#FFFFFF; stroke-width:0; stroke-opacity:1; 
stroke-linecap:round; stroke-linejoin:round;">
<circle cx="8179.53" cy="10081.5" r="157.48" /> 
</g>
<g style="fill:#FFFFFF; fill-opacity:1.0; 
stroke:#FFFFFF; stroke-width:39.3701; stroke-opacity:1; 
stroke-linecap:round; stroke-linejoin:round;">
</g>
<g style="fill:#FFFFFF; fill-opacity:1.0; 
stroke:#FFFFFF; stroke-width:0; stroke-opacity:1; 
stroke-linecap:round; stroke-linejoin:round;">
<circle cx="11679.5" cy="16281.5" r="157.48" /> 
</g>
<g style="fill:#FFFFFF; fill-opacity:1.0; 
stroke:#FFFFFF; stroke-width:39.3701; stroke-opacity:1; 
stroke-linecap:round; stroke-linejoin:round;">
</g>
<g style="fill:#FFFFFF; fill-opacity:1.0; 
stroke:#FFFFFF; stroke-width:0; stroke-opacity:1; 
stroke-linecap:round; stroke-linejoin:round;">
<circle cx="11679.5" cy="13281.5" r="157.48" /> 
</g>
<g style="fill:#FFFFFF; fill-opacity:1.0; 
stroke:#FFFFFF; stroke-width:39.3701; stroke-opacity:1; 
stroke-linecap:round; stroke-linejoin:round;">
</g>
<g style="fill:#FFFFFF; fill-opacity:1.0; 
stroke:#FFFFFF; stroke-width:0; stroke-opacity:1; 
stroke-linecap:round; stroke-linejoin:round;">
<circle cx="9929.53" cy="9481.5" r="157.48" /> 
</g>
<g style="fill:#FFFFFF; fill-opacity:1.0; 
stroke:#FFFFFF; stroke-width:39.3701; stroke-opacity:1; 
stroke-linecap:round; stroke-linejoin:round;">
</g>
<g style="fill:#FFFFFF; fill-opacity:1.0; 
stroke:#FFFFFF; stroke-width:0; stroke-opacity:1; 
stroke-linecap:round; stroke-linejoin:round;">
<circle cx="12929.5" cy="7481.5" r="157.48" /> 
</g>
<g style="fill:#FFFFFF; fill-opacity:1.0; 
stroke:#FFFFFF; stroke-width:39.3701; stroke-opacity:1; 
stroke-linecap:round; stroke-linejoin:round;">
</g>
<g style="fill:#FFFFFF; fill-opacity:1.0; 
stroke:#FFFFFF; stroke-width:0; stroke-opacity:1; 
stroke-linecap:round; stroke-linejoin:round;">
<circle cx="9929.53" cy="8481.5" r="157.48" /> 
</g>
<g style="fill:#FFFFFF; fill-opacity:1.0; 
stroke:#FFFFFF; stroke-width:39.3701; stroke-opacity:1; 
stroke-linecap:round; stroke-linejoin:round;">
</g>
<g style="fill:#FFFFFF; fill-opacity:1.0; 
stroke:#FFFFFF; stroke-width:0; stroke-opacity:1; 
stroke-linecap:round; stroke-linejoin:round;">
<circle cx="12929.5" cy="8481.5" r="157.48" /> 
</g>
<g style="fill:#FFFFFF; fill-opacity:1.0; 
stroke:#FFFFFF; stroke-width:39.3701; stroke-opacity:1; 
stroke-linecap:round; stroke-linejoin:round;">
</g>
<g style="fill:#FFFFFF; fill-opacity:1.0; 
stroke:#FFFFFF; stroke-width:0; stroke-opacity:1; 
stroke-linecap:round; stroke-linejoin:round;">
<circle cx="9929.53" cy="7481.5" r="157.48" /> 
</g>
<g style="fill:#FFFFFF; fill-opacity:1.0; 
stroke:#FFFFFF; stroke-width:39.3701; stroke-opacity:1; 
stroke-linecap:round; stroke-linejoin:round;">
</g>
<g style="fill:#FFFFFF; fill-opacity:1.0; 
stroke:#FFFFFF; stroke-width:0; stroke-opacity:1; 
stroke-linecap:round; stroke-linejoin:round;">
<circle cx="12929.5" cy="9481.5" r="157.48" /> 
</g>
<g style="fill:#FFFFFF; fill-opacity:1.0; 
stroke:#FFFFFF; stroke-width:39.3701; stroke-opacity:1; 
stroke-linecap:round; stroke-linejoin:round;">
</g>
<g style="fill:#FFFFFF; fill-opacity:1.0; 
stroke:#FFFFFF; stroke-width:0; stroke-opacity:1; 
stroke-linecap:round; stroke-linejoin:round;">
<circle cx="5529.53" cy="11581.5" r="157.48" /> 
</g>
<g style="fill:#FFFFFF; fill-opacity:1.0; 
stroke:#FFFFFF; stroke-width:39.3701; stroke-opacity:1; 
stroke-linecap:round; stroke-linejoin:round;">
</g>
<g style="fill:#FFFFFF; fill-opacity:1.0; 
stroke:#FFFFFF; stroke-width:0; stroke-opacity:1; 
stroke-linecap:round; stroke-linejoin:round;">
<circle cx="8529.53" cy="13581.5" r="157.48" /> 
</g>
<g style="fill:#FFFFFF; fill-opacity:1.0; 
stroke:#FFFFFF; stroke-width:39.3701; stroke-opacity:1; 
stroke-linecap:round; stroke-linejoin:round;">
</g>
<g style="fill:#FFFFFF; fill-opacity:1.0; 
stroke:#FFFFFF; stroke-width:0; stroke-opacity:1; 
stroke-linecap:round; stroke-linejoin:round;">
<circle cx="5529.53" cy="12581.5" r="157.48" /> 
</g>
<g style="fill:#FFFFFF; fill-opacity:1.0; 
stroke:#FFFFFF; stroke-width:39.3701; stroke-opacity:1; 
stroke-linecap:round; stroke-linejoin:round;">
</g>
<g style="fill:#FFFFFF; fill-opacity:1.0; 
stroke:#FFFFFF; stroke-width:0; stroke-opacity:1; 
stroke-linecap:round; stroke-linejoin:round;">
<circle cx="8529.53" cy="12581.5" r="157.48" /> 
</g>
<g style="fill:#FFFFFF; fill-opacity:1.0; 
stroke:#FFFFFF; stroke-width:39.3701; stroke-opacity:1; 
stroke-linecap:round; stroke-linejoin:round;">
</g>
<g style="fill:#FFFFFF; fill-opacity:1.0; 
stroke:#FFFFFF; stroke-width:0; stroke-opacity:1; 
stroke-linecap:round; stroke-linejoin:round;">
<circle cx="5529.53" cy="13581.5" r="157.48" /> 
</g>
<g style="fill:#FFFFFF; fill-opacity:1.0; 
stroke:#FFFFFF; stroke-width:39.3701; stroke-opacity:1; 
stroke-linecap:round; stroke-linejoin:round;">
</g>
<g style="fill:#FFFFFF; fill-opacity:1.0; 
stroke:#FFFFFF; stroke-width:0; stroke-opacity:1; 
stroke-linecap:round; stroke-linejoin:round;">
<circle cx="8529.53" cy="11581.5" r="157.48" /> 
</g>
<g style="fill:#FFFFFF; fill-opacity:1.0; 
stroke:#FFFFFF; stroke-width:39.3701; stroke-opacity:1; 
stroke-linecap:round; stroke-linejoin:round;">
</g>
<g style="fill:#FFFFFF; fill-opacity:1.0; 
stroke:#FFFFFF; stroke-width:0; stroke-opacity:1; 
stroke-linecap:round; stroke-linejoin:round;">
<circle cx="12929.5" cy="13331.5" r="157.48" /> 
</g>
<g style="fill:#FFFFFF; fill-opacity:1.0; 
stroke:#FFFFFF; stroke-width:39.3701; stroke-opacity:1; 
stroke-linecap:round; stroke-linejoin:round;">
</g>
<g style="fill:#FFFFFF; fill-opacity:1.0; 
stroke:#FFFFFF; stroke-width:0; stroke-opacity:1; 
stroke-linecap:round; stroke-linejoin:round;">
<circle cx="12929.5" cy="16331.5" r="157.48" /> 
</g>
<g style="fill:#FFFFFF; fill-opacity:1.0; 
stroke:#FFFFFF; stroke-width:39.3701; stroke-opacity:1; 
stroke-linecap:round; stroke-linejoin:round;">
</g>
<g style="fill:#FFFFFF; fill-opacity:1.0; 
stroke:#FFFFFF; stroke-width:0; stroke-opacity:1; 
stroke-linecap:round; stroke-linejoin:round;">
<circle cx="5429.53" cy="6081.5" r="157.48" /> 
</g>
<g style="fill:#FFFFFF; fill-opacity:1.0; 
stroke:#FFFFFF; stroke-width:39.3701; stroke-opacity:1; 
stroke-linecap:round; stroke-linejoin:round;">
</g>
<g style="fill:#FFFFFF; fill-opacity:1.0; 
stroke:#FFFFFF; stroke-width:0; stroke-opacity:1; 
stroke-linecap:round; stroke-linejoin:round;">
<circle cx="8429.53" cy="6081.5" r="157.48" /> 
</g>
<g style="fill:#FFFFFF; fill-opacity:1.0; 
stroke:#FFFFFF; stroke-width:39.3701; stroke-opacity:1; 
stroke-linecap:round; stroke-linejoin:round;">
</g>
<g style="fill:#FFFFFF; fill-opacity:1.0; 
stroke:#FFFFFF; stroke-width:0; stroke-opacity:1; 
stroke-linecap:round; stroke-linejoin:round;">
<circle cx="5729.53" cy="7081.5" r="157.48" /> 
</g>
<g style="fill:#FFFFFF; fill-opacity:1.0; 
stroke:#FFFFFF; stroke-width:39.3701; stroke-opacity:1; 
stroke-linecap:round; stroke-linejoin:round;">
</g>
<g style="fill:#FFFFFF; fill-opacity:1.0; 
stroke:#FFFFFF; stroke-width:0; stroke-opacity:1; 
stroke-linecap:round; stroke-linejoin:round;">
<circle cx="5729.53" cy="10081.5" r="157.48" /> 
</g>
<g style="fill:#FFFFFF; fill-opacity:1.0; 
stroke:#FFFFFF; stroke-width:39.3701; stroke-opacity:1; 
stroke-linecap:round; stroke-linejoin:round;">
</g>
<g style="fill:#FFFFFF; fill-opacity:1.0; 
stroke:#FFFFFF; stroke-width:0; stroke-opacity:1; 
stroke-linecap:round; stroke-linejoin:round;">
<circle cx="6979.53" cy="7081.5" r="157.48" /> 
</g>
<g style="fill:#FFFFFF; fill-opacity:1.0; 
stroke:#FFFFFF; stroke-width:39.3701; stroke-opacity:1; 
stroke-linecap:round; stroke-linejoin:round;">
</g>
<g style="fill:#FFFFFF; fill-opacity:1.0; 
stroke:#FFFFFF; stroke-width:0; stroke-opacity:1; 
stroke-linecap:round; stroke-linejoin:round;">
<circle cx="6979.53" cy="10081.5" r="157.48" /> 
</g>
<g style="fill:#FFFFFF; fill-opacity:1.0; 
stroke:#FFFFFF; stroke-width:39.3701; stroke-opacity:1; 
stroke-linecap:round; stroke-linejoin:round;">
</g>
<g style="fill:#000000; fill-opacity:1.0; 
stroke:#000000; stroke-width:39.3701; stroke-opacity:1; 
stroke-linecap:round; stroke-linejoin:round;">
</g>
<g style="fill:#000000; fill-opacity:1.0; 
stroke:#000000; stroke-width:59.0551; stroke-opacity:1; 
stroke-linecap:round; stroke-linejoin:round;">
</g>
<g style="fill:#000000; fill-opacity:0.0; 
stroke:#000000; stroke-width:59.0551; stroke-opacity:1; 
stroke-linecap:round; stroke-linejoin:round;">
<path d="M29 21281
L29 2281
" />
<path d="M16029 21281
L29 21281
" />
<path d="M16029 2281
L16029 21281
" />
<path d="M29 2281
L16029 2281
" />
</g> 
</svg>
